<svg width="40" height="40" viewBox="0 0 40 40" fill="none" xmlns="http://www.w3.org/2000/svg">
                        <path d="M23.1891 5.76507C23.3176 5.28484 23.6316 4.87532 24.0621 4.62656C24.4925 4.37779 25.0041 4.31015 25.4844 4.4385C27.9084 5.07001 30.1202 6.33672 31.8915 8.108C33.6627 9.87928 34.9294 12.091 35.5609 14.5151C35.6304 14.7547 35.6513 15.0058 35.6225 15.2536C35.5937 15.5015 35.5157 15.741 35.3931 15.9583C35.2705 16.1756 35.1057 16.3663 34.9085 16.5191C34.7113 16.6719 34.4856 16.7839 34.2445 16.8483C34.0035 16.9128 33.752 16.9285 33.5049 16.8945C33.2577 16.8606 33.0198 16.7776 32.8051 16.6506C32.5903 16.5235 32.4032 16.3548 32.2545 16.1545C32.1058 15.9541 31.9985 15.7261 31.9391 15.4838C31.4734 13.6982 30.5401 12.0691 29.2352 10.7642C27.9304 9.45937 26.3012 8.52603 24.5156 8.06038C24.0354 7.93182 23.6259 7.61781 23.3771 7.18738C23.1284 6.75695 23.0607 6.24535 23.1891 5.76507ZM36.8516 27.4338C36.5536 29.702 35.4402 31.7841 33.7193 33.2914C31.9984 34.7987 29.7877 35.628 27.5 35.6244C14.7484 35.6244 4.37501 25.251 4.37501 12.4994C4.37147 10.2118 5.20077 8.00106 6.70804 6.28015C8.21531 4.55924 10.2975 3.44584 12.5656 3.14788C13.2339 3.06667 13.9106 3.20291 14.4954 3.5364C15.0803 3.8699 15.5421 4.38292 15.8125 4.99944L19.1109 12.3635C19.1145 12.3732 19.1186 12.3826 19.1234 12.3916C19.3262 12.8654 19.4086 13.382 19.3633 13.8953C19.318 14.4086 19.1465 14.9028 18.8641 15.3338C18.8239 15.3966 18.7795 15.4566 18.7313 15.5135L15.7531 19.0619C16.8563 21.0682 18.9563 23.1494 20.9859 24.251L24.4719 21.2823C24.5278 21.2354 24.5863 21.1916 24.6469 21.151C25.0794 20.8608 25.5779 20.6838 26.0966 20.6363C26.6153 20.5888 27.1376 20.6723 27.6156 20.8791L27.6438 20.8916L35 24.1869C35.6164 24.4576 36.1292 24.9194 36.4627 25.5042C36.7962 26.089 36.9325 26.7655 36.8516 27.4338ZM33.0531 27.4244L26.4906 24.4854L22.9859 27.4651C22.9309 27.5128 22.8729 27.5571 22.8125 27.5979C22.362 27.8966 21.8417 28.0733 21.3025 28.1109C20.7632 28.1484 20.2235 28.0454 19.7359 27.8119C16.6922 26.3432 13.6594 23.3307 12.1875 20.3119C11.9534 19.8266 11.8489 19.289 11.8839 18.7513C11.9189 18.2136 12.0924 17.6941 12.3875 17.2432C12.4282 17.1804 12.4731 17.1203 12.5219 17.0635L15.5156 13.5135L12.575 6.95101C11.3116 7.22943 10.1814 7.93153 9.37192 8.94077C8.56248 9.95001 8.1225 11.2057 8.12501 12.4994C8.13121 17.6361 10.1745 22.5606 13.8067 26.1928C17.4388 29.825 22.3633 31.8682 27.5 31.8744C28.7946 31.878 30.0513 31.4385 31.0615 30.629C32.0718 29.8195 32.7745 28.6887 33.0531 27.4244ZM22.7547 13.9791C23.5215 14.2208 24.2187 14.6438 24.7871 15.2123C25.3556 15.7808 25.7786 16.478 26.0203 17.2448C26.14 17.6252 26.3778 17.9576 26.6992 18.1936C27.0207 18.4296 27.409 18.557 27.8078 18.5573C27.9991 18.557 28.1892 18.5281 28.3719 18.4713C28.8444 18.3218 29.2384 17.9914 29.468 17.5522C29.6975 17.113 29.7439 16.6008 29.5969 16.1276C29.174 14.785 28.4335 13.5643 27.4382 12.569C26.443 11.5737 25.2222 10.8332 23.8797 10.4104C23.6434 10.3311 23.3937 10.2997 23.1452 10.3181C22.8966 10.3364 22.6542 10.4041 22.4321 10.5173C22.2101 10.6304 22.0128 10.7866 21.8518 10.9769C21.6908 11.1672 21.5694 11.3876 21.4946 11.6254C21.4198 11.8631 21.3932 12.1134 21.4163 12.3615C21.4393 12.6097 21.5117 12.8508 21.629 13.0706C21.7463 13.2905 21.9063 13.4848 22.0996 13.6421C22.2929 13.7995 22.5156 13.9167 22.7547 13.9869V13.9791Z" fill="#2B2B5E"></path>
                        </svg>